# Blender v2.79 (sub 4) OBJ File: 'cube.blend'
# www.blender.org
mtllib cube.mtl
o Cube_Cube.001
v -1.000000 -1.000000 1.000000
v -1.000000 1.000000 1.000000
v -1.000000 -1.000000 -1.000000
v -1.000000 1.000000 -1.000000
v 1.000000 -1.000000 1.000000
v 1.000000 1.000000 1.000000
v 1.000000 -1.000000 -1.000000
v 1.000000 1.000000 -1.000000
vt 0.958647 0.291980
vt 0.708020 0.291980
vt 0.708020 0.041353
vt 0.958647 0.041353
vt 0.291980 0.625313
vt 0.041353 0.625313
vt 0.041353 0.374687
vt 0.291980 0.374687
vt 0.291980 0.291980
vt 0.041353 0.291980
vt 0.041353 0.041353
vt 0.291980 0.041353
vt 0.374687 0.291980
vt 0.374687 0.041353
vt 0.625313 0.041353
vt 0.625313 0.291980
vt 0.291980 0.958647
vt 0.041353 0.958647
vt 0.041353 0.708020
vt 0.291980 0.708020
vt 0.625313 0.374687
vt 0.625313 0.625313
vt 0.374687 0.625313
vt 0.374687 0.374687
vn -1.0000 0.0000 0.0000
vn 0.0000 0.0000 -1.0000
vn 1.0000 0.0000 0.0000
vn 0.0000 0.0000 1.0000
vn 0.0000 -1.0000 0.0000
vn 0.0000 1.0000 0.0000
usemtl Material.001
s off
f 1/1/1 2/2/1 4/3/1 3/4/1
f 3/5/2 4/6/2 8/7/2 7/8/2
f 7/9/3 8/10/3 6/11/3 5/12/3
f 5/13/4 6/14/4 2/15/4 1/16/4
f 3/17/5 7/18/5 5/19/5 1/20/5
f 8/21/6 4/22/6 2/23/6 6/24/6
